<?xml version="1.0" encoding="utf-8"?>
<!-- Generator: Adobe Illustrator 25.0.0, SVG Export Plug-In . SVG Version: 6.00 Build 0)  -->
<svg version="1.1" id="Layer_1" xmlns="http://www.w3.org/2000/svg" xmlns:xlink="http://www.w3.org/1999/xlink" x="0px" y="0px"
	 viewBox="0 0 60 60" style="enable-background:new 0 0 60 60;" xml:space="preserve">
<style type="text/css">
	.st0{fill:#43E8E3;}
</style>
<g>
	<path class="st0" d="M30,0C13.4,0,0,13.4,0,30s13.4,30,30,30s30-13.4,30-30S46.6,0,30,0z M45,40H32.8c-0.4,1.2-1.5,2-2.8,2
		s-2.4-0.8-2.8-2H14v-2h13.2c0.4-1.2,1.5-2,2.8-2s2.4,0.8,2.8,2H45V40z M45,31H23.8c-0.4,1.2-1.5,2-2.8,2s-2.4-0.8-2.8-2H14v-2h4.2
		c0.4-1.2,1.5-2,2.8-2s2.4,0.8,2.8,2H45V31z M45,22h-5.2c-0.4,1.2-1.5,2-2.8,2s-2.4-0.8-2.8-2H14v-2h20.2c0.4-1.2,1.5-2,2.8-2
		s2.4,0.8,2.8,2H45V22z"/>
</g>
</svg>
