<svg xmlns="http://www.w3.org/2000/svg" viewBox="0 0 125 18.64"><defs><style>.cls-1{fill:#c4c4c4;}</style></defs><g id="Layer_2" data-name="Layer 2"><g id="Layer_1-2" data-name="Layer 1"><path d="M18,1.78A6.11,6.11,0,0,0,16.08.46,5.85,5.85,0,0,0,13.82,0a5.75,5.75,0,0,0-4,1.58A5.75,5.75,0,0,0,5.92,0,5.82,5.82,0,0,0,3.66.46,5.89,5.89,0,0,0,1.75,1.78a6.09,6.09,0,0,0,0,8.54l8.12,8.32L18,10.32a6.09,6.09,0,0,0,0-8.54Z"/><path d="M44.3,1.78A5.89,5.89,0,0,0,42.39.46a5.75,5.75,0,0,0-6.21,1.12,5.71,5.71,0,0,0-4-1.58A5.89,5.89,0,0,0,30,.46a6.1,6.1,0,0,0-1.91,9.86l8.12,8.32,8.13-8.32a6.08,6.08,0,0,0,0-8.54Z"/><path d="M70.62,1.78A6,6,0,0,0,68.71.46,5.82,5.82,0,0,0,66.45,0a5.75,5.75,0,0,0-4,1.58,5.75,5.75,0,0,0-4-1.58,5.82,5.82,0,0,0-2.26.46,5.89,5.89,0,0,0-1.91,1.32,6.09,6.09,0,0,0,0,8.54l8.12,8.32,8.12-8.32a6.09,6.09,0,0,0,0-8.54Z"/><path d="M96.94,1.78A6.11,6.11,0,0,0,95,.46,5.89,5.89,0,0,0,92.77,0a5.73,5.73,0,0,0-4,1.58,5.75,5.75,0,0,0-4-1.58A5.89,5.89,0,0,0,82.6.46a6.1,6.1,0,0,0-1.9,9.86l8.12,8.32,8.12-8.32a6.09,6.09,0,0,0,0-8.54Z"/><path class="cls-1" d="M123.25,1.78A5.89,5.89,0,0,0,121.34.46a5.75,5.75,0,0,0-6.21,1.12A5.75,5.75,0,0,0,111.18,0a5.85,5.85,0,0,0-2.26.46A6,6,0,0,0,107,1.78a6.09,6.09,0,0,0,0,8.54l8.12,8.32,8.12-8.32a6.09,6.09,0,0,0,0-8.54Z"/></g></g></svg>