<svg xmlns="http://www.w3.org/2000/svg" viewBox="0 0 155.74 18.64"><g id="Layer_2" data-name="Layer 2"><g id="Layer_1-2" data-name="Layer 1"><path d="M18,1.78A6.11,6.11,0,0,0,16.08.46,5.85,5.85,0,0,0,13.82,0a5.75,5.75,0,0,0-4,1.58A5.75,5.75,0,0,0,5.91,0,5.64,5.64,0,0,0,3.66.47,5.71,5.71,0,0,0,1.75,1.78a6.09,6.09,0,0,0,0,8.54l8.12,8.32L18,10.32a6.09,6.09,0,0,0,0-8.54Z"/><path d="M52,1.78A6.11,6.11,0,0,0,50.08.46,5.85,5.85,0,0,0,47.82,0a5.75,5.75,0,0,0-4,1.58,5.75,5.75,0,0,0-4-1.58,5.64,5.64,0,0,0-2.25.47,5.71,5.71,0,0,0-1.91,1.31,6.09,6.09,0,0,0,0,8.54l8.12,8.32L52,10.32a6.09,6.09,0,0,0,0-8.54Z"/><path d="M86,1.78A6.11,6.11,0,0,0,84.08.46,5.85,5.85,0,0,0,81.82,0a5.75,5.75,0,0,0-3.95,1.58,5.75,5.75,0,0,0-4-1.58,5.64,5.64,0,0,0-2.25.47,5.71,5.71,0,0,0-1.91,1.31,6.09,6.09,0,0,0,0,8.54l8.12,8.32L86,10.32a6.09,6.09,0,0,0,0-8.54Z"/><path d="M120,1.78A6.11,6.11,0,0,0,118.08.46,5.85,5.85,0,0,0,115.82,0a5.75,5.75,0,0,0-3.95,1.58,5.75,5.75,0,0,0-4-1.58,5.65,5.65,0,0,0-2.26.47,5.71,5.71,0,0,0-1.91,1.31,6.09,6.09,0,0,0,0,8.54l8.12,8.32L120,10.32a6.09,6.09,0,0,0,0-8.54Z"/><path d="M154,1.78A6.11,6.11,0,0,0,152.08.46,5.85,5.85,0,0,0,149.82,0a5.75,5.75,0,0,0-3.95,1.58,5.75,5.75,0,0,0-4-1.58,5.64,5.64,0,0,0-2.25.47,5.71,5.71,0,0,0-1.91,1.31,6.09,6.09,0,0,0,0,8.54l8.12,8.32L154,10.32a6.09,6.09,0,0,0,0-8.54Z"/></g></g></svg>