<svg xmlns="http://www.w3.org/2000/svg" viewBox="0 0 64 39"><defs><style>.cls-1{fill:#fff;}</style></defs><g id="Layer_2" data-name="Layer 2"><g id="Layer_1-2" data-name="Layer 1"><rect width="64" height="39" rx="10"/><path class="cls-1" d="M12.84,16.74a3.5,3.5,0,0,1-.38,1.82,2.14,2.14,0,0,1-1.23.86,2.2,2.2,0,0,1,1.23.87,3.5,3.5,0,0,1,.38,1.82V26a1.83,1.83,0,0,0,.43,1.32,1.78,1.78,0,0,0,1.32.46H15v2.93H13.63a4.68,4.68,0,0,1-3.38-1.11A4.2,4.2,0,0,1,9.1,26.36V22a1.14,1.14,0,0,0-.29-.84A1,1,0,0,0,8,20.89H7.25V18H8a1,1,0,0,0,.77-.29,1.14,1.14,0,0,0,.29-.84V12.49A4.2,4.2,0,0,1,10.25,9.3a4.68,4.68,0,0,1,3.38-1.11H15v2.93h-.43a1.78,1.78,0,0,0-1.32.46,1.83,1.83,0,0,0-.43,1.32Z"/><path class="cls-1" d="M24.73,12.9a6.47,6.47,0,0,1,3.27.84,5.84,5.84,0,0,1,2.33,2.32,7,7,0,0,1,.84,3.48,7.12,7.12,0,0,1-.84,3.51A6.07,6.07,0,0,1,28,25.38a6.66,6.66,0,0,1-3.27.81,5,5,0,0,1-3.88-1.56v6H17.1V13.09h3.58v1.49A5,5,0,0,1,24.73,12.9Zm-.64,10.22a3.1,3.1,0,0,0,2.35-1,3.67,3.67,0,0,0,.94-2.62A3.58,3.58,0,0,0,26.44,17a3.08,3.08,0,0,0-2.35-1,3.17,3.17,0,0,0-2.38,1,3.61,3.61,0,0,0-.91,2.59,3.7,3.7,0,0,0,.91,2.62A3.2,3.2,0,0,0,24.09,23.12Z"/><path class="cls-1" d="M47,13.09V23.84q0,3.56-1.84,5.28a7.68,7.68,0,0,1-5.41,1.73,13.29,13.29,0,0,1-3.55-.46,7.65,7.65,0,0,1-2.78-1.32l1.49-2.69A6,6,0,0,0,37,27.44a8,8,0,0,0,2.5.41A4,4,0,0,0,42.31,27a3.42,3.42,0,0,0,.94-2.64v-.55a5.26,5.26,0,0,1-4.08,1.61,7,7,0,0,1-3.26-.77,6.05,6.05,0,0,1-3.2-5.47,6.12,6.12,0,0,1,.87-3.27,5.82,5.82,0,0,1,2.33-2.18,6.78,6.78,0,0,1,3.26-.79,5.12,5.12,0,0,1,4.27,1.84V13.09ZM39.91,22.3a3.42,3.42,0,0,0,2.43-.86,3,3,0,0,0,1-2.3,2.9,2.9,0,0,0-1-2.28A3.36,3.36,0,0,0,39.91,16a3.4,3.4,0,0,0-2.44.89,2.9,2.9,0,0,0-1,2.28,3,3,0,0,0,1,2.3A3.47,3.47,0,0,0,39.91,22.3Z"/><path class="cls-1" d="M56.89,18v2.93h-.8a1,1,0,0,0-.79.29A1.22,1.22,0,0,0,55,22v4.34a4.23,4.23,0,0,1-1.15,3.19,4.71,4.71,0,0,1-3.39,1.11H49.11V27.73h.43a1.69,1.69,0,0,0,1.3-.46A1.79,1.79,0,0,0,51.29,26V22.11a3.4,3.4,0,0,1,.39-1.82,2.14,2.14,0,0,1,1.22-.87,2.09,2.09,0,0,1-1.22-.86,3.4,3.4,0,0,1-.39-1.82V12.9a1.79,1.79,0,0,0-.45-1.32,1.69,1.69,0,0,0-1.3-.46h-.43V8.19H50.5A4.71,4.71,0,0,1,53.89,9.3,4.23,4.23,0,0,1,55,12.49v4.34a1.22,1.22,0,0,0,.26.84,1.08,1.08,0,0,0,.79.29Z"/></g></g></svg>