<?xml version="1.0" encoding="utf-8"?>
<!-- Generator: Adobe Illustrator 25.0.0, SVG Export Plug-In . SVG Version: 6.00 Build 0)  -->
<svg version="1.1" id="Layer_1" xmlns="http://www.w3.org/2000/svg" xmlns:xlink="http://www.w3.org/1999/xlink" x="0px" y="0px"
	 viewBox="0 0 60 60" style="enable-background:new 0 0 60 60;" xml:space="preserve">
<style type="text/css">
	.st0{fill:#727272;}
	.st1{fill:#C5F9FD;}
	.st2{fill:#FFA6B7;}
	.st3{fill:#FCCD04;}
	.st4{fill:#F84241;}
	.st5{fill:#1D2A73;}
	.st6{fill:#7A5EC3;}
	.st7{fill:#FF6666;}
</style>
<g>
	<path class="st0" d="M60,30C60,13.5,46.7,0.1,30.2,0C13.8,0.1,0.5,13.5,0.5,30s13.3,29.9,29.8,30C46.7,59.9,60,46.5,60,30z
		 M38.5,38H38H22.5H22V22h0.5H38h0.5V38z"/>
</g>
<circle class="st1" cx="-77.5" cy="61.5" r="18"/>
<circle class="st2" cx="-74.5" cy="381.5" r="18"/>
<circle class="st3" cx="290.5" cy="379.5" r="18"/>
<circle class="st2" cx="-437.5" cy="-259.5" r="18"/>
<circle class="st4" cx="-437.5" cy="58.5" r="18"/>
<circle class="st5" cx="-430.5" cy="368.5" r="18"/>
<circle class="st6" cx="-68.5" cy="-257.5" r="18"/>
<circle class="st7" cx="285.5" cy="-253.5" r="18"/>
<circle class="st6" cx="287.5" cy="69.5" r="18"/>
</svg>
